<?xml version="1.0" encoding="utf-8"?>
<!-- Generator: Adobe Illustrator 16.0.0, SVG Export Plug-In . SVG Version: 6.00 Build 0)  -->
<!DOCTYPE svg PUBLIC "-//W3C//DTD SVG 1.1//EN" "http://www.w3.org/Graphics/SVG/1.1/DTD/svg11.dtd">
<svg version="1.1" xmlns="http://www.w3.org/2000/svg" xmlns:xlink="http://www.w3.org/1999/xlink" x="0px" y="0px" width="100px"
	 height="58px" viewBox="0 0 100 58" enable-background="new 0 0 100 58" xml:space="preserve">
<g id="Layer_2">
</g>
<g id="Layer_1">
	<g>
		<rect x="23.505" y="24.031" fill="none" width="78.597" height="15.43"/>
		<text transform="matrix(1 0 0 1 30.8916 39.2012)" fill="#404041" font-family="'TradeGothic-Roman'" font-size="21.0125">URBAN</text>
		<rect x="-3.771" y="42.708" fill="none" width="105.545" height="21.069"/>
		<text transform="matrix(1 0 0 1 -2.1538 57.8789)" fill="#404041" font-family="'TradeGothic-Roman'" font-size="21.0125">EXPLORER</text>
		<g>
			<g>
				<g>
					<polygon fill="#D4CDCA" points="7.042,13.439 0.104,17.844 0.104,39.461 7.042,34.842 					"/>
				</g>
				<g>
					<polygon fill="#938F92" points="7.08,13.439 14.018,17.844 14.018,39.461 7.08,34.842 					"/>
				</g>
				<g>
					<polygon fill="#D4CDCA" points="20.992,13.439 14.053,17.844 14.053,39.461 20.992,34.842 					"/>
				</g>
				<g>
					<polygon fill="#938F92" points="21.029,13.439 27.968,17.844 27.968,39.461 21.029,34.842 					"/>
				</g>
			</g>
			<g>
				<g>
					<path fill="#039ED5" d="M11.546,12.08c-1.934-3.678-0.521-8.228,3.156-10.164c3.677-1.934,8.227-0.521,10.162,3.156
						c1.2,2.282,1.112,4.897-0.006,7.018l-0.022-0.01l-6.657,12.602L11.546,12.08z M18.206,5.375c-1.879,0-3.4,1.521-3.4,3.399
						s1.521,3.4,3.4,3.4c1.878,0,3.399-1.522,3.399-3.4S20.084,5.375,18.206,5.375z"/>
				</g>
				<g>
					<defs>
						<rect id="SVGID_77_" x="18.333" y="1.049" width="7.398" height="23.633"/>
					</defs>
					<clipPath id="SVGID_2_">
						<use xlink:href="#SVGID_77_"  overflow="visible"/>
					</clipPath>
					<path clip-path="url(#SVGID_2_)" fill="#006884" d="M11.546,12.08c-1.934-3.678-0.521-8.228,3.156-10.164
						c3.677-1.934,8.227-0.521,10.162,3.156c1.2,2.282,1.112,4.897-0.006,7.018l-0.022-0.01l-6.657,12.602L11.546,12.08z
						 M18.206,5.375c-1.879,0-3.4,1.521-3.4,3.399s1.521,3.4,3.4,3.4c1.878,0,3.399-1.522,3.399-3.4S20.084,5.375,18.206,5.375z"/>
				</g>
			</g>
		</g>
	</g>
</g>
<g id="Layer_3">
</g>
</svg>
